<svg xmlns="http://www.w3.org/2000/svg" viewBox="0 0 37.333 40">
  <defs>
    <style>
      .cls-1 {
        opacity: 0.8;
      }
    </style>
  </defs>
  <g id="card" class="cls-1" transform="translate(0)">
    <path id="Path_100" data-name="Path 100" d="M36,6.667H22.667V5.333a2,2,0,0,0-2-2H17.334V.667A.667.667,0,0,0,16.667,0H6a.667.667,0,0,0-.667.667V3.333H2a2,2,0,0,0-2,2v18a.666.666,0,0,0,.2.471l1.8,1.8V38.667A1.333,1.333,0,0,0,3.334,40h16a1.333,1.333,0,0,0,1.333-1.333V25.609l1.8-1.8a.666.666,0,0,0,.2-.471v-.667H36a1.333,1.333,0,0,0,1.333-1.333V8A1.333,1.333,0,0,0,36,6.666ZM6.667,1.333H16V6.667H6.667ZM3.334,38.667V26h16V38.667Zm18-15.609-1.609,1.61H2.943l-1.61-1.61V5.333A.667.667,0,0,1,2,4.667H5.333v2H4V8H18.667V6.666H17.334v-2h3.333a.667.667,0,0,1,.667.667Zm1.333-1.724V8H36V21.333Zm0,0"/>
    <path id="Path_101" data-name="Path 101" d="M346.532,119.465a271.368,271.368,0,0,1-4.981,1.323,6.426,6.426,0,1,0,4.981-1.323Zm-4,2.667a1.332,1.332,0,1,1,2.326.886,1.3,1.3,0,0,1-.107.106,1.317,1.317,0,0,1-.886.341,1.333,1.333,0,0,1-1.333-1.333Zm4,1.333a1.322,1.322,0,0,1-.334-.042c.026-.047.046-.1.067-.147.013-.028.027-.055.04-.084a2.676,2.676,0,0,0,.151-.46c.006-.03.011-.061.017-.091a2.679,2.679,0,0,0,.059-.51,2.613,2.613,0,0,0-.054-.509c-.006-.031-.01-.062-.017-.093a2.678,2.678,0,0,0-.149-.453c-.014-.033-.03-.067-.045-.1-.023-.046-.041-.094-.067-.139a1.333,1.333,0,1,1,.332,2.625Zm0,0" transform="translate(-314.531 -110.132)"/>
    <path id="Path_102" data-name="Path 102" d="M58,145.066H43.335a.667.667,0,0,0-.667.667v8a.667.667,0,0,0,.667.667H58a.667.667,0,0,0,.667-.667v-8A.667.667,0,0,0,58,145.066Zm-.667,8H44V146.4H57.335v6.667Zm0,0" transform="translate(-39.335 -133.733)"/>
    <path id="Path_103" data-name="Path 103" d="M63.067,349.867H60.4a.667.667,0,0,0-.667.667V353.2a.667.667,0,0,0,.667.667h2.667a.667.667,0,0,0,.667-.667v-2.667A.667.667,0,0,0,63.067,349.867Zm-.667,2.667H61.067V351.2H62.4Zm0,0" transform="translate(-55.067 -322.534)"/>
    <path id="Path_104" data-name="Path 104" d="M122.8,349.867h-2.667a.667.667,0,0,0-.667.667V353.2a.667.667,0,0,0,.667.667H122.8a.667.667,0,0,0,.667-.667v-2.667A.667.667,0,0,0,122.8,349.867Zm-.667,2.667H120.8V351.2h1.333Zm0,0" transform="translate(-110.135 -322.534)"/>
    <path id="Path_105" data-name="Path 105" d="M182.532,349.867h-2.667a.667.667,0,0,0-.667.667V353.2a.667.667,0,0,0,.667.667h2.667a.667.667,0,0,0,.667-.667v-2.667A.667.667,0,0,0,182.532,349.867Zm-.667,2.667h-1.333V351.2h1.333Zm0,0" transform="translate(-165.199 -322.534)"/>
    <path id="Path_106" data-name="Path 106" d="M63.067,418.133H60.4a.667.667,0,0,0-.667.667v2.667a.667.667,0,0,0,.667.667h2.667a.667.667,0,0,0,.667-.667V418.8A.667.667,0,0,0,63.067,418.133ZM62.4,420.8H61.067v-1.333H62.4Zm0,0" transform="translate(-55.067 -385.466)"/>
    <path id="Path_107" data-name="Path 107" d="M122.8,418.133h-2.667a.667.667,0,0,0-.667.667v2.667a.667.667,0,0,0,.667.667H122.8a.667.667,0,0,0,.667-.667V418.8A.667.667,0,0,0,122.8,418.133Zm-.667,2.667H120.8v-1.333h1.333Zm0,0" transform="translate(-110.135 -385.466)"/>
    <path id="Path_108" data-name="Path 108" d="M182.532,418.133h-2.667a.667.667,0,0,0-.667.667v2.667a.667.667,0,0,0,.667.667h2.667a.667.667,0,0,0,.667-.667V418.8A.667.667,0,0,0,182.532,418.133Zm-.667,2.667h-1.333v-1.333h1.333Zm0,0" transform="translate(-165.199 -385.466)"/>
    <path id="Path_109" data-name="Path 109" d="M307.2,221.867h10.667V223.2H307.2Zm0,0" transform="translate(-283.199 -204.534)"/>
    <path id="Path_110" data-name="Path 110" d="M136.535,196.266h1.333V197.6h-1.333Zm0,0" transform="translate(-125.868 -180.933)"/>
    <path id="Path_111" data-name="Path 111" d="M170.668,196.266H172V197.6h-1.333Zm0,0" transform="translate(-157.334 -180.933)"/>
    <path id="Path_112" data-name="Path 112" d="M102.4,196.266h1.333V197.6H102.4Zm0,0" transform="translate(-94.398 -180.933)"/>
  </g>
</svg>
