<svg xmlns="http://www.w3.org/2000/svg" viewBox="0 0 43.441 45">
  <defs>
    <style>
      .cls-1 {
        opacity: 0.8;
      }
    </style>
  </defs>
  <g id="courier" class="cls-1" transform="translate(-8.867)">
    <g id="Group_179" data-name="Group 179" transform="translate(8.867)">
      <path id="Path_82" data-name="Path 82" d="M52.3,40.7l-.388-7.24a6.924,6.924,0,0,0-4.607-6.1L38.373,24.2a1.143,1.143,0,0,0-1.184.269l-.286.287-1.946-.977V22.059a9.13,9.13,0,0,0,3.779-5.552c0-.022.008-.044.012-.066.013-.073.025-.146.036-.218s.019-.137.027-.2c0-.029.006-.057.009-.086q.011-.107.017-.213c0-.02,0-.039,0-.059s0-.038,0-.057h.481A1.71,1.71,0,0,0,41.032,13.9V11.8a1.7,1.7,0,0,0-.025-.289.638.638,0,0,0,.025-.174A5.05,5.05,0,0,0,40.76,9.7V7.431A7.439,7.439,0,0,0,33.329,0H27.847a7.439,7.439,0,0,0-7.431,7.431V9.7a5.048,5.048,0,0,0-.273,1.637.642.642,0,0,0,.025.174,1.7,1.7,0,0,0-.025.289V13.9A1.71,1.71,0,0,0,21.852,15.6h.48c0,.023,0,.046,0,.069s0,.039,0,.059q.007.11.018.221c0,.024,0,.048.007.072q.014.126.033.252c.007.048.016.1.024.143s.012.071.019.106q.017.091.037.181l.008.035a9.2,9.2,0,0,0,3.733,5.334v1.7l-1.945.977-.287-.287A1.143,1.143,0,0,0,22.8,24.2l-8.937,3.158a6.926,6.926,0,0,0-4.607,6.105L8.871,40.69a2.013,2.013,0,0,0,2.008,2.142h8.688V44a1,1,0,0,0,1,1h20.05a1,1,0,0,0,1-1V42.831H50.3A2.013,2.013,0,0,0,52.3,40.7ZM39.751,13.9a.428.428,0,0,1-.427.427h-.476V11.982h.9ZM27.847,1.281h5.482a6.157,6.157,0,0,1,6.15,6.15v.262l-.03-.028q-.068-.065-.139-.127l-.021-.019a5.051,5.051,0,0,0-2.83-1.225l-.021,0c-.074-.007-.149-.013-.224-.017s-.168-.006-.252-.006H25.216q-.127,0-.252.006c-.075,0-.15.01-.224.017l-.021,0a5.05,5.05,0,0,0-2.83,1.225l-.021.019q-.071.062-.139.127l-.03.028V7.431h0A6.157,6.157,0,0,1,27.847,1.281ZM22.328,14.323h-.476a.428.428,0,0,1-.427-.427V11.982h.9Zm-.85-3.622a3.784,3.784,0,0,1,1.035-2.016l.045-.044.058-.056.077-.07.027-.024c.033-.028.066-.056.1-.084l0,0a3.811,3.811,0,0,1,1.8-.806l.021,0,.113-.016.054-.006.093-.009.086-.006.069,0c.053,0,.107,0,.16,0H35.96c.054,0,.107,0,.16,0l.069,0,.086.006.093.009.054.006.113.016.021,0a3.81,3.81,0,0,1,1.8.806l0,0c.033.027.066.055.1.084l.027.024.077.07.058.056.045.044A3.785,3.785,0,0,1,39.7,10.7Zm2.161,5.2,0-.027q-.012-.107-.018-.214c0-.009,0-.018,0-.027,0-.079-.007-.158-.007-.236V11.982H37.566v3.4c0,.078,0,.157-.007.235,0,.01,0,.02,0,.03q-.007.1-.018.209l0,.034a7.569,7.569,0,0,1-4.975,5.883l-.084.021a5.978,5.978,0,0,1-3.879-.009A7.577,7.577,0,0,1,23.64,15.9Zm3.142,9.028a1.1,1.1,0,0,0,.718-1.035V22.765a5.9,5.9,0,0,0,.785.261,9.153,9.153,0,0,0,2.264.368,9.174,9.174,0,0,0,2.238-.359l.083-.021a5.908,5.908,0,0,0,.806-.266v1.145a1.1,1.1,0,0,0,.718,1.035l1.51.758-.026.021c-.085.068-.17.135-.257.2l-.006,0c-.086.064-.173.125-.261.185l-.042.029q-.129.087-.26.168L35,26.326q-.132.081-.267.157l-.041.023q-.136.075-.274.145l-.018.009c-.094.048-.19.093-.286.137l-.052.024q-.14.063-.282.12l-.056.022c-.1.038-.194.075-.292.11l-.036.012q-.144.05-.29.1l-.033.01q-.15.046-.3.085l-.058.015q-.149.038-.3.071l-.056.012c-.1.022-.209.042-.314.06l-.023,0q-.155.026-.311.046l-.044.006q-.157.02-.315.033l-.06.005q-.158.013-.316.02l-.052,0c-.111,0-.222.007-.334.007s-.223,0-.334-.007l-.051,0q-.159-.007-.316-.02l-.06-.005c-.106-.009-.211-.02-.316-.033l-.041-.005q-.159-.021-.316-.047l-.018,0c-.107-.018-.213-.039-.319-.061l-.049-.01q-.155-.034-.308-.073l-.047-.012c-.105-.028-.21-.057-.314-.089l-.013,0q-.161-.049-.32-.105l-.013,0q-.157-.056-.312-.118l-.032-.013q-.154-.062-.305-.13l-.021-.009q-.317-.144-.623-.314h0q-.152-.085-.3-.176l-.015-.009q-.148-.092-.293-.189h0q-.293-.2-.57-.423l-.007-.005ZM50.829,41.319a.723.723,0,0,1-.532.231h-5.29V33.964a.641.641,0,1,0-1.281,0V41.55H41.609V30.907a1,1,0,0,0-1-1H20.563a1,1,0,0,0-1,1v4.279a.641.641,0,1,0,1.281,0V31.192h6.543v5.561a.641.641,0,0,0,.951.56l2.2-1.22,2.3,1.226a.641.641,0,0,0,.942-.565V31.192h6.543V43.719H20.848V39.7a.641.641,0,0,0-1.281,0V41.55H17.45V33.964a.641.641,0,1,0-1.281,0V41.55h-5.29a.723.723,0,0,1-.532-.231.731.731,0,0,1-.2-.555l.387-7.227a5.645,5.645,0,0,1,3.755-4.973l8.851-3.128.553.554h0a9.668,9.668,0,0,0,6.89,2.847c.267,0,.533-.011.8-.032a9.649,9.649,0,0,0,6.094-2.815l0,0h0l.55-.551,8.851,3.128a5.642,5.642,0,0,1,3.755,4.966l.388,7.24A.727.727,0,0,1,50.829,41.319ZM32.5,31.192v4.495L30.835,34.8a.641.641,0,0,0-.612.005l-1.551.861V31.192H32.5Z" transform="translate(-8.867)"/>
    </g>
  </g>
</svg>
