<svg xmlns="http://www.w3.org/2000/svg" viewBox="0 0 40 39.96">
  <defs>
    <style>
      .cls-1 {
        opacity: 0.8;
      }
    </style>
  </defs>
  <g id="online" class="cls-1" transform="translate(0 -0.231)">
    <path id="Path_95" data-name="Path 95" d="M266.4,127.232c-6.687,0-9.06,4.347-9.06,8.069v13.025c0,3.722,2.373,8.069,9.06,8.069s9.06-4.347,9.06-8.069V135.3C275.465,131.579,273.092,127.232,266.4,127.232Zm7.785,21.094a6.972,6.972,0,0,1-1.544,4.416c-1.345,1.578-3.445,2.378-6.24,2.378s-4.9-.8-6.24-2.378a6.972,6.972,0,0,1-1.544-4.416V135.3a6.972,6.972,0,0,1,1.544-4.416c1.345-1.578,3.445-2.378,6.24-2.378s4.9.8,6.24,2.378a6.972,6.972,0,0,1,1.544,4.416Z" transform="translate(-235.465 -116.203)"/>
    <path id="Path_96" data-name="Path 96" d="M25.454,1.506A4.854,4.854,0,0,1,30.3,6.355V9.116a.638.638,0,1,0,1.275,0V6.355a6.124,6.124,0,0,0-12.248-.033V23.3a4.849,4.849,0,0,1-9.7-.033V18.2a8.993,8.993,0,1,0-1.275,0V23.27A6.124,6.124,0,0,0,20.6,23.3V6.323a4.838,4.838,0,0,1,4.849-4.816ZM1.275,9.225a7.719,7.719,0,1,1,7.719,7.719A7.727,7.727,0,0,1,1.275,9.225Z"/>
    <path id="Path_97" data-name="Path 97" d="M86.87,65.955a.481.481,0,0,1-.48-.48.638.638,0,0,0-1.275,0,1.757,1.757,0,0,0,1.118,1.634v.273a.638.638,0,0,0,1.275,0v-.274a1.757,1.757,0,0,0,1.118-1.634,2.128,2.128,0,0,0-1.483-1.925c-.588-.276-.749-.441-.749-.771a.48.48,0,1,1,.96,0,.638.638,0,0,0,1.275,0,1.757,1.757,0,0,0-1.118-1.634v-.273a.638.638,0,1,0-1.275,0v.274a1.757,1.757,0,0,0-1.118,1.634A2.128,2.128,0,0,0,86.6,64.7c.588.276.749.441.749.771a.481.481,0,0,1-.48.48Z" transform="translate(-77.878 -54.901)"/>
    <path id="Path_98" data-name="Path 98" d="M44.422,36.676a6.443,6.443,0,0,0-12.728-1.415.638.638,0,0,0,1.244.28,5.168,5.168,0,1,1,0,2.27.638.638,0,0,0-1.244.28,6.443,6.443,0,0,0,12.728-1.415Z" transform="translate(-28.985 -27.451)"/>
    <path id="Path_99" data-name="Path 99" d="M294.492,168.625v-2.217a2.283,2.283,0,0,0,1.642-2.188v-3.027A2.283,2.283,0,0,0,294.492,159V157.87a.638.638,0,1,0-1.275,0V159a2.283,2.283,0,0,0-1.642,2.188v3.027a2.283,2.283,0,0,0,1.642,2.188v2.217h-5.234a.638.638,0,0,0,0,1.275h11.743a.638.638,0,1,0,0-1.275Zm-1.642-4.405v-3.027a1,1,0,0,1,2.009,0v3.027a1,1,0,0,1-2.009,0Z" transform="translate(-262.914 -143.652)"/>
  </g>
</svg>
