<svg xmlns="http://www.w3.org/2000/svg" viewBox="0 0 40 39.918">
  <defs>
    <style>
      .cls-1 {
        opacity: 0.8;
      }
    </style>
  </defs>
  <g id="open-box" class="cls-1" transform="translate(0 -0.627)">
    <path id="Path_90" data-name="Path 90" d="M39.812,8.853a.487.487,0,0,0-.6-.092l-8.278,4.754L19.512,7.084a.506.506,0,0,0-.076-.031L16.225.889a.487.487,0,0,0-.666-.2L.252,9.093a.487.487,0,0,0-.19.666l3.626,6.363c0,.013.046.025.046.039V30.739H3.64s.075.424.227.515l15.155,9.2a.513.513,0,0,0,.252.1.477.477,0,0,0,.248-.056l15.465-9.239c.153-.091.23-.511.23-.511H35.4v-14.5l4.546-6.78A.507.507,0,0,0,39.812,8.853ZM17.048,23.25l2.245-1.434,1.3.848-1.223,1.96Zm1.786-2.266-2.7,1.711L5.123,16.174,18.834,8.348ZM4.708,17.03l14.126,8.561V39.219L4.708,30.66Zm15.1,8.564,14.613-8.573V30.657L19.808,39.228Zm1.323-3.758-1.323-.879V8.343l10.165,5.738L23.829,17.6a.464.464,0,0,0-.165.165ZM15.591,1.78l2.918,5.6L4.38,15.456,1.152,9.71ZM34.337,15.814l.02.014L21.119,23.658l3.289-5.271,13.444-7.721Z" transform="translate(0)"/>
  </g>
</svg>
