<svg xmlns="http://www.w3.org/2000/svg" viewBox="0 0 27.963 27.963">
  <defs>
    <style>
      .cls-1 {
        fill: #fff;
      }
    </style>
  </defs>
  <g id="whatsapp" transform="translate(0 0)">
    <path id="WhatsApp-2" data-name="WhatsApp" class="cls-1" d="M27.963,13.621A13.75,13.75,0,0,1,7.6,25.548L0,27.963l2.478-7.308a13.478,13.478,0,0,1-1.97-7.033,13.728,13.728,0,0,1,27.455,0ZM14.236,2.169A11.51,11.51,0,0,0,2.694,13.621a11.332,11.332,0,0,0,2.2,6.714L3.451,24.589l4.435-1.41a11.553,11.553,0,0,0,17.891-9.557A11.511,11.511,0,0,0,14.236,2.169Zm6.932,14.589c-.085-.139-.309-.223-.645-.39s-1.992-.975-2.3-1.086-.533-.167-.757.167S16.6,16.536,16.4,16.758s-.392.251-.729.084a9.21,9.21,0,0,1-2.706-1.657,10.066,10.066,0,0,1-1.872-2.312c-.2-.334-.021-.515.148-.681.152-.15.337-.39.5-.585a2.238,2.238,0,0,0,.336-.557.608.608,0,0,0-.028-.585c-.084-.167-.757-1.81-1.038-2.478s-.56-.557-.757-.557S9.839,7.4,9.615,7.4a1.242,1.242,0,0,0-.9.418A3.733,3.733,0,0,0,7.54,10.605a6.46,6.46,0,0,0,1.374,3.453c.168.222,2.327,3.7,5.748,5.04s3.421.89,4.038.835a3.4,3.4,0,0,0,2.272-1.587A2.783,2.783,0,0,0,21.168,16.758Z"/>
  </g>
</svg>
