<svg xmlns="http://www.w3.org/2000/svg" viewBox="0 0 98.995 98.995">
  <defs>
    <style>
      .cls-1 {
        fill: #fff;
        stroke: #707070;
        stroke-dasharray: 2 5;
      }

      .cls-2 {
        fill: none;
      }

      .cls-3 {
        fill: #d14836;
      }

      .cls-4 {
        stroke: none;
      }
    </style>
  </defs>
  <g id="_3" data-name="3" transform="translate(-1023 -681)">
    <g id="Rectangle_117" data-name="Rectangle 117" class="cls-1" transform="translate(1072.498 681) rotate(45)">
      <rect class="cls-4" width="70" height="70"/>
      <rect class="cls-2" x="0.5" y="0.5" width="69" height="69"/>
    </g>
    <g id="phone" transform="translate(1052 710)">
      <path id="Path_1" data-name="Path 1" class="cls-2" d="M0,0H40V40H0Z"/>
      <path id="Path_2" data-name="Path 2" class="cls-3" d="M9.033,15.983A25.248,25.248,0,0,0,20.017,26.967L23.683,23.3a1.657,1.657,0,0,1,1.7-.4,19.012,19.012,0,0,0,5.95.95A1.672,1.672,0,0,1,33,25.517v5.817A1.672,1.672,0,0,1,31.333,33,28.331,28.331,0,0,1,3,4.667,1.672,1.672,0,0,1,4.667,3H10.5a1.672,1.672,0,0,1,1.667,1.667,18.934,18.934,0,0,0,.95,5.95,1.673,1.673,0,0,1-.417,1.7Z" transform="translate(2 2)"/>
    </g>
  </g>
</svg>
