<svg xmlns="http://www.w3.org/2000/svg" viewBox="0 0 98.995 98.995">
  <defs>
    <style>
      .cls-1 {
        fill: #fff;
        stroke: #707070;
        stroke-dasharray: 2 5;
      }

      .cls-2 {
        fill: #1d2120;
      }

      .cls-3 {
        stroke: none;
      }

      .cls-4 {
        fill: none;
      }
    </style>
  </defs>
  <g id="_4" data-name="4" transform="translate(-1029 -898)">
    <g id="Rectangle_116" data-name="Rectangle 116" class="cls-1" transform="translate(1078.498 898) rotate(45)">
      <rect class="cls-3" width="70" height="70"/>
      <rect class="cls-4" x="0.5" y="0.5" width="69" height="69"/>
    </g>
    <g id="document" transform="translate(1047 927)">
      <g id="Group_25" data-name="Group 25" transform="translate(19.586 4.138)">
        <g id="Group_24" data-name="Group 24" transform="translate(0)">
          <path id="Path_23" data-name="Path 23" class="cls-2" d="M104.048,53.031a1.961,1.961,0,0,0-1-1.174l-1.344-.672a.589.589,0,0,1,.263-1.116h.2a.59.59,0,0,1,.589.589v.1h1.379v-.1a1.965,1.965,0,0,0-1.379-1.868V48h-1.379v.79a1.961,1.961,0,0,0-.291,3.629l1.344.672a.589.589,0,0,1-.263,1.116h-.2a.59.59,0,0,1-.589-.589v-.1H100v.1a1.965,1.965,0,0,0,1.379,1.868v.79h1.379v-.79A1.961,1.961,0,0,0,104.048,53.031Z" transform="translate(-99.999 -48)"/>
        </g>
      </g>
      <g id="Group_27" data-name="Group 27" transform="translate(18.897 20)">
        <g id="Group_26" data-name="Group 26">
          <rect id="Rectangle_36" data-name="Rectangle 36" class="cls-2" width="11.724" height="1.379"/>
        </g>
      </g>
      <g id="Group_29" data-name="Group 29" transform="translate(18.897 22.759)">
        <g id="Group_28" data-name="Group 28">
          <rect id="Rectangle_37" data-name="Rectangle 37" class="cls-2" width="11.724" height="1.379"/>
        </g>
      </g>
      <g id="Group_31" data-name="Group 31" transform="translate(18.897 25.517)">
        <g id="Group_30" data-name="Group 30">
          <rect id="Rectangle_38" data-name="Rectangle 38" class="cls-2" width="8.276" height="1.379"/>
        </g>
      </g>
      <g id="Group_33" data-name="Group 33" transform="translate(23.034 17.241)">
        <g id="Group_32" data-name="Group 32" transform="translate(0)">
          <rect id="Rectangle_39" data-name="Rectangle 39" class="cls-2" width="7.586" height="1.379"/>
        </g>
      </g>
      <g id="Group_35" data-name="Group 35" transform="translate(26.483 7.586)">
        <g id="Group_34" data-name="Group 34">
          <rect id="Rectangle_40" data-name="Rectangle 40" class="cls-2" width="12.414" height="1.379"/>
        </g>
      </g>
      <g id="Group_37" data-name="Group 37" transform="translate(26.483 10.345)">
        <g id="Group_36" data-name="Group 36">
          <rect id="Rectangle_41" data-name="Rectangle 41" class="cls-2" width="9.655" height="1.379"/>
        </g>
      </g>
      <g id="Group_39" data-name="Group 39" transform="translate(30.621 4.828)">
        <g id="Group_38" data-name="Group 38">
          <rect id="Rectangle_42" data-name="Rectangle 42" class="cls-2" width="8.276" height="1.379"/>
        </g>
      </g>
      <g id="Group_41" data-name="Group 41" transform="translate(12)">
        <g id="Group_40" data-name="Group 40" transform="translate(0)">
          <path id="Path_24" data-name="Path 24" class="cls-2" d="M47.172,31.724H43.286l2.746-8.69a6.735,6.735,0,0,0-3.687-8.2V6.9h3.448a.69.69,0,0,0,.69-.69V2.759A2.759,2.759,0,0,0,43.724,0H18.207a2.759,2.759,0,0,0-2.759,2.759V28.966H12.69a.69.69,0,0,0-.69.69v2.759a2.759,2.759,0,0,0,2.759,2.759H29.339A2.759,2.759,0,0,0,32,37.241V39.31a.69.69,0,0,0,.69.69H46.483a.69.69,0,0,0,.69-.69V37.241a2.759,2.759,0,1,0,0-5.517ZM42.345,2.759a1.379,1.379,0,0,1,2.759,0V5.517H42.345Zm1.043,14.436a5.379,5.379,0,0,1,1.326,5.425l0,0L41.84,31.724H36.668l-2.424-9.218a5.4,5.4,0,0,1,1.4-5.172l.138-.138A5.379,5.379,0,0,1,43.388,17.195ZM16.828,2.759a1.379,1.379,0,0,1,1.379-1.379H41.349a2.731,2.731,0,0,0-.383,1.379V14.386a6.759,6.759,0,0,0-6.159,1.832l-.138.138a6.783,6.783,0,0,0-1.757,6.5l1.606,6.11H16.828ZM29.339,33.793H14.759a1.379,1.379,0,0,1-1.379-1.379V30.345h21.5l.363,1.379H32A2.759,2.759,0,0,0,29.339,33.793Zm16.454,4.828H33.379V37.241H45.793Zm1.379-2.759H32A1.379,1.379,0,1,1,32,33.1H47.172a1.379,1.379,0,1,1,0,2.759Z" transform="translate(-12)"/>
        </g>
      </g>
      <g id="Group_43" data-name="Group 43" transform="translate(27.862 4.828)">
        <g id="Group_42" data-name="Group 42">
          <rect id="Rectangle_43" data-name="Rectangle 43" class="cls-2" width="1.379" height="1.379"/>
        </g>
      </g>
      <g id="Group_45" data-name="Group 45" transform="translate(20.276 17.241)">
        <g id="Group_44" data-name="Group 44">
          <rect id="Rectangle_44" data-name="Rectangle 44" class="cls-2" width="1.379" height="1.379"/>
        </g>
      </g>
      <g id="Group_47" data-name="Group 47" transform="translate(35.448 18.069)">
        <g id="Group_46" data-name="Group 46" transform="translate(0)">
          <path id="Path_25" data-name="Path 25" class="cls-2" d="M286.482,210.7l-.828-1.1a4.14,4.14,0,0,0-1.31,4.966l1.263-.552A2.762,2.762,0,0,1,286.482,210.7Z" transform="translate(-284 -209.6)"/>
        </g>
      </g>
      <g id="Group_49" data-name="Group 49" transform="translate(38.759 17.241)">
        <g id="Group_48" data-name="Group 48">
          <path id="Path_26" data-name="Path 26" class="cls-2" d="M322.4,200.083l.276,1.352a2.791,2.791,0,0,1,1.1,0l.276-1.352A4.218,4.218,0,0,0,322.4,200.083Z" transform="translate(-322.4 -200.001)"/>
        </g>
      </g>
    </g>
  </g>
</svg>
