<svg xmlns="http://www.w3.org/2000/svg" viewBox="0 0 98.995 98.994">
  <defs>
    <style>
      .cls-1 {
        fill: #fff;
        stroke: #000;
        stroke-dasharray: 2 5;
      }

      .cls-1, .cls-2 {
        opacity: 0.8;
      }

      .cls-3 {
        stroke: none;
      }

      .cls-4 {
        fill: none;
      }
    </style>
  </defs>
  <g id="_5" data-name="5" transform="translate(-359.787 -259.503)">
    <g id="Rectangle_120" data-name="Rectangle 120" class="cls-1" transform="translate(359.787 309) rotate(-45)">
      <rect class="cls-3" width="70" height="70"/>
      <rect class="cls-4" x="0.5" y="0.5" width="69" height="69"/>
    </g>
    <g id="shop" class="cls-2" transform="translate(389 289)">
      <g id="Group_172" data-name="Group 172" transform="translate(31.719 33.281)">
        <g id="Group_171" data-name="Group 171">
          <path id="Path_78" data-name="Path 78" d="M406.781,426a.781.781,0,1,0,.781.781A.782.782,0,0,0,406.781,426Z" transform="translate(-406 -426)"/>
        </g>
      </g>
      <g id="Group_174" data-name="Group 174">
        <g id="Group_173" data-name="Group 173">
          <path id="Path_79" data-name="Path 79" d="M34.844,3.706V2.344A2.346,2.346,0,0,0,32.5,0H7.5A2.346,2.346,0,0,0,5.156,2.344V3.706C.06,13.117,0,12.837,0,13.28H0v1.563a3.888,3.888,0,0,0,2.031,3.33V39.219A.781.781,0,0,0,2.813,40H37.188a.781.781,0,0,0,.781-.781V18.173A3.932,3.932,0,0,0,40,14.844V13.281h0C40,12.833,39.89,13.025,34.844,3.706ZM37.9,12.5H33.063l-2.6-7.812H33.6ZM27.031,14.063h4.688v.781a2.344,2.344,0,0,1-4.687,0ZM26.912,12.5l-1.3-7.812h3.2l2.6,7.813ZM6.719,2.344A.782.782,0,0,1,7.5,1.563h25a.782.782,0,0,1,.781.781v.781H6.719Zm18.75,11.719v.781a2.344,2.344,0,0,1-4.687,0v-.781ZM20.781,12.5V4.688h3.244l1.3,7.813Zm-6.109,0,1.3-7.812h3.244V12.5Zm4.546,1.563v.781a2.344,2.344,0,0,1-4.687,0v-.781ZM8.584,12.5l2.6-7.812h3.2l-1.3,7.813Zm4.385,1.563v.781a2.344,2.344,0,0,1-4.687,0v-.781ZM6.4,4.688H9.541L6.937,12.5H2.1ZM1.563,14.844v-.781H6.719v.781a2.567,2.567,0,0,1-2.578,2.344,2.619,2.619,0,0,1-1.021-.214A2.43,2.43,0,0,1,1.563,14.844ZM16.094,38.438H8.281V31.719h7.813Zm0-8.281H8.281V23.438h7.813Zm20.313,8.281H17.656V22.656a.781.781,0,0,0-.781-.781H7.5a.781.781,0,0,0-.781.781V38.438H3.594V18.712a4.059,4.059,0,0,0,.547.038,4.306,4.306,0,0,0,2.851-1.118,4.224,4.224,0,0,0,.47-.5,3.9,3.9,0,0,0,6.288.053,3.9,3.9,0,0,0,6.25,0,3.9,3.9,0,0,0,6.25,0,3.9,3.9,0,0,0,6.288-.053,4.23,4.23,0,0,0,.47.5,4.306,4.306,0,0,0,2.851,1.118,4.042,4.042,0,0,0,.547-.038Zm2.031-23.594A2.432,2.432,0,0,1,36.822,17a2.6,2.6,0,0,1-.963.189,2.567,2.567,0,0,1-2.578-2.344v-.781h5.156Z"/>
        </g>
      </g>
      <g id="Group_176" data-name="Group 176" transform="translate(20.781 21.875)">
        <g id="Group_175" data-name="Group 175">
          <path id="Path_80" data-name="Path 80" d="M279.281,288.281H278.5v-7.5a.781.781,0,0,0-.781-.781h-9.375a.781.781,0,0,0-.781.781v7.5h-.781a.781.781,0,0,0,0,1.563h12.5a.781.781,0,0,0,0-1.562Zm-2.344,0h-7.812v-6.719h7.813Z" transform="translate(-266 -280)"/>
        </g>
      </g>
      <g id="Group_178" data-name="Group 178" transform="translate(22.344 33.281)">
        <g id="Group_177" data-name="Group 177">
          <path id="Path_81" data-name="Path 81" d="M293.031,426h-6.25a.781.781,0,0,0,0,1.563h6.25a.781.781,0,0,0,0-1.562Z" transform="translate(-286 -426)"/>
        </g>
      </g>
    </g>
  </g>
</svg>
